<?xml version="1.0" encoding="utf-8"?>
<!-- Generator: Adobe Illustrator 22.1.0, SVG Export Plug-In . SVG Version: 6.00 Build 0)  -->
<svg version="1.1" id="Ebene_1" xmlns="http://www.w3.org/2000/svg" xmlns:xlink="http://www.w3.org/1999/xlink" x="0px" y="0px"
	 viewBox="0 0 140.7 140.7" style="enable-background:new 0 0 140.7 140.7;" xml:space="preserve">
<style type="text/css">
	.st0{fill:#2D3237;}
</style>
<title>patter_punkte_20190920_RZ_PS</title>
<path class="st0" d="M140.7,56.7c-2.2,0-4,1.8-4,4s1.8,4,4,4V56.7z"/>
<path class="st0" d="M132.4,1.8c1,1,2.6,1,3.5,0c0.5-0.5,0.7-1.1,0.7-1.8h-5C131.7,0.7,132,1.3,132.4,1.8z"/>
<path class="st0" d="M58.5,34.4c1.2,1.7,0.9,4-0.7,5.3c-1.5,1.3-3.8,1.1-5.1-0.4c0,0,0,0,0,0c-1.4-1.6-1.3-3.9,0.2-5.4
	C54.6,32.7,57,32.9,58.5,34.4z"/>
<path class="st0" d="M81.7,89.2c1.2,1.7,0.9,4-0.7,5.3c-1.5,1.3-3.8,1.1-5.1-0.4c0,0,0,0,0,0c-1.4-1.6-1.3-3.9,0.2-5.4
	C77.8,87.5,80.2,87.7,81.7,89.2z"/>
<path class="st0" d="M96.7,87.4c1.2,1.6,0.9,3.9-0.7,5.1c-1.6,1.2-3.8,0.8-5-0.8c-1.2-1.5-0.9-3.7,0.7-4.9c0,0,0,0,0.1,0
	C93.3,85.7,95.5,85.9,96.7,87.4z"/>
<circle class="st0" cx="49.8" cy="66.8" r="4.9"/>
<circle class="st0" cx="86.4" cy="44.1" r="4.9"/>
<circle class="st0" cx="135.6" cy="83.7" r="4.9"/>
<circle class="st0" cx="25.5" cy="32.2" r="4.9"/>
<circle class="st0" cx="116.4" cy="16.8" r="4.9"/>
<circle class="st0" cx="74.2" cy="78.1" r="3.5"/>
<circle class="st0" cx="59.2" cy="82.1" r="3.5"/>
<circle class="st0" cx="37.5" cy="11.9" r="3.5"/>
<circle class="st0" cx="129.3" cy="8.9" r="3.5"/>
<circle class="st0" cx="109.2" cy="100.2" r="3.5"/>
<circle class="st0" cx="134" cy="123.9" r="3.5"/>
<circle class="st0" cx="113.4" cy="128.4" r="3.5"/>
<circle class="st0" cx="63.2" cy="127.8" r="3.8"/>
<circle class="st0" cx="37.8" cy="93.6" r="3.8"/>
<circle class="st0" cx="84.8" cy="109" r="3.8"/>
<circle class="st0" cx="64.8" cy="50.1" r="3.8"/>
<circle class="st0" cx="7.8" cy="37.6" r="3.7"/>
<circle class="st0" cx="92.5" cy="17.4" r="3.8"/>
<circle class="st0" cx="74.9" cy="21.3" r="3.8"/>
<circle class="st0" cx="56" cy="17.5" r="3.8"/>
<circle class="st0" cx="40.5" cy="25.1" r="2.5"/>
<circle class="st0" cx="82.5" cy="8.9" r="2.5"/>
<circle class="st0" cx="111.2" cy="4.1" r="2.5"/>
<circle class="st0" cx="40.5" cy="39.2" r="2.5"/>
<circle class="st0" cx="101.2" cy="52.1" r="2.5"/>
<circle class="st0" cx="115" cy="51.3" r="2.5"/>
<circle class="st0" cx="64.8" cy="97" r="2.5"/>
<circle class="st0" cx="55.7" cy="92.9" r="2.5"/>
<circle class="st0" cx="40.2" cy="80.4" r="2.5"/>
<circle class="st0" cx="28.7" cy="75.8" r="2.5"/>
<circle class="st0" cx="19.5" cy="92.3" r="2.5"/>
<circle class="st0" cx="29.8" cy="105.9" r="2.5"/>
<circle class="st0" cx="77" cy="61" r="2.5"/>
<circle class="st0" cx="138.1" cy="27" r="2.5"/>
<circle class="st0" cx="126.8" cy="73.9" r="2.5"/>
<circle class="st0" cx="99.8" cy="118.2" r="2.5"/>
<circle class="st0" cx="80.6" cy="136.1" r="2.5"/>
<circle class="st0" cx="50.8" cy="136.6" r="2.5"/>
<circle class="st0" cx="130.5" cy="105.1" r="2.5"/>
<circle class="st0" cx="32.7" cy="58.7" r="3.8"/>
<circle class="st0" cx="26.2" cy="120.7" r="3.8"/>
<circle class="st0" cx="10" cy="122.5" r="3.8"/>
<circle class="st0" cx="82.5" cy="122.1" r="3.5"/>
<circle class="st0" cx="66.5" cy="4.1" r="2.5"/>
<circle class="st0" cx="71.1" cy="35.1" r="2.5"/>
<circle class="st0" cx="44.9" cy="48.8" r="2.5"/>
<circle class="st0" cx="18.7" cy="47.9" r="2.5"/>
<circle class="st0" cx="6.3" cy="78.3" r="2.5"/>
<circle class="st0" cx="14.5" cy="64.1" r="3.2"/>
<circle class="st0" cx="67.8" cy="113.4" r="3.2"/>
<circle class="st0" cx="126.8" cy="45.1" r="3.2"/>
<circle class="st0" cx="109.9" cy="78.5" r="4"/>
<circle class="st0" cx="123.2" cy="91.7" r="3.5"/>
<circle class="st0" cx="38.5" cy="127.5" r="2.5"/>
<path class="st0" d="M95.3,74.4c-3.9,0-7-3.1-7-7s3.1-7,7-7s7,3.1,7,7S99.1,74.4,95.3,74.4z M95.3,62.9c-2.5,0-4.5,2-4.5,4.5
	s2,4.5,4.5,4.5s4.5-2,4.5-4.5C99.8,64.9,97.7,62.9,95.3,62.9z"/>
<path class="st0" d="M47.4,118.1c-3.6,0-6.5-2.9-6.5-6.5s2.9-6.5,6.5-6.5s6.5,2.9,6.5,6.5l0,0C53.9,115.2,51,118.1,47.4,118.1z
	 M47.4,107.6c-2.2,0-4,1.8-4,4s1.8,4,4,4s4-1.8,4-4S49.6,107.6,47.4,107.6z"/>
<path class="st0" d="M105.8,40.4c-3.2,0-5.8-2.6-5.8-5.8s2.6-5.7,5.8-5.7s5.8,2.6,5.8,5.7l0,0C111.5,37.8,109,40.4,105.8,40.4z
	 M105.8,31.4c-1.8,0-3.2,1.5-3.2,3.2s1.5,3.2,3.2,3.2s3.2-1.5,3.2-3.2C109,32.8,107.6,31.4,105.8,31.4z"/>
<path class="st0" d="M15.2,21.9c-3.6,0-6.5-2.9-6.5-6.5s2.9-6.5,6.5-6.5s6.5,2.9,6.5,6.5C21.7,19,18.7,21.9,15.2,21.9z M15.2,11.4
	c-2.2,0-4,1.8-4,4s1.8,4,4,4s4-1.8,4-4S17.4,11.4,15.2,11.4z"/>
<path class="st0" d="M8.3,109.8c-3.2,0-5.8-2.6-5.8-5.7c0-3.2,2.6-5.8,5.7-5.8c3.2,0,5.7,2.5,5.8,5.7C14,107.2,11.5,109.8,8.3,109.8
	C8.3,109.8,8.3,109.8,8.3,109.8z M8.3,100.8c-1.8,0-3.2,1.5-3.2,3.3c0,1.8,1.5,3.2,3.3,3.2s3.2-1.5,3.2-3.3c0,0,0,0,0,0
	C11.5,102.2,10,100.8,8.3,100.8z"/>
<circle class="st0" cx="117.4" cy="112.4" r="3.5"/>
<circle class="st0" cx="19.5" cy="136" r="3.5"/>
<circle class="st0" cx="126" cy="31.3" r="2.5"/>
<circle class="st0" cx="129" cy="61.3" r="2.5"/>
<circle class="st0" cx="114" cy="64.3" r="2.5"/>
<path class="st0" d="M7.1,1.8c1,1,2.6,1,3.5,0c0.5-0.5,0.7-1.1,0.7-1.8h-5C6.3,0.7,6.6,1.3,7.1,1.8z"/>
<path class="st0" d="M30.6,1.8c1,1,2.6,1,3.5,0c0.5-0.5,0.7-1.1,0.7-1.8h-5C29.8,0.7,30.1,1.3,30.6,1.8z"/>
<path class="st0" d="M98.4,4.9c2.7,0,4.9-2.2,4.9-4.9c0,0,0,0,0,0h-9.8C93.5,2.7,95.7,4.9,98.4,4.9L98.4,4.9z"/>
<path class="st0" d="M136,138.9c-1-1-2.6-1-3.5,0c-0.5,0.5-0.7,1.1-0.7,1.8h5C136.7,140,136.5,139.4,136,138.9z"/>
<path class="st0" d="M98.4,135.8c-2.7,0-4.9,2.2-4.9,4.9h9.8C103.3,138,101.1,135.8,98.4,135.8z"/>
<path class="st0" d="M34.1,138.9c-1-1-2.6-1-3.5,0c0,0,0,0,0,0c-0.5,0.5-0.7,1.1-0.7,1.8h5C34.8,140,34.6,139.4,34.1,138.9z"/>
<path class="st0" d="M10.6,138.9c-1-1-2.6-1-3.5,0c-0.5,0.5-0.7,1.1-0.7,1.7h5C11.3,140,11.1,139.4,10.6,138.9z"/>
<path class="st0" d="M0,56.7v8c2.2,0,4-1.8,4-4S2.2,56.7,0,56.7z"/>
</svg>
