<svg xmlns="http://www.w3.org/2000/svg" viewBox="0 0 140.69 140.69"><title>patter_punkte_20190920_RZ_PS</title><path d="M140.69,56.71a4,4,0,0,0,0,8Z" style="fill:#ff6900"/><path d="M132.42,1.77a2.5,2.5,0,0,0,3.53,0A2.5,2.5,0,0,0,136.69,0h-5A2.49,2.49,0,0,0,132.42,1.77Z" style="fill:#ff6900"/><path d="M58.52,34.44a3.94,3.94,0,0,1-.73,5.35,3.59,3.59,0,0,1-5.1-.4A3.89,3.89,0,0,1,52.9,34,4.25,4.25,0,0,1,58.52,34.44Z" style="fill:#ff6900"/><path d="M81.67,89.22a3.94,3.94,0,0,1-.73,5.35,3.59,3.59,0,0,1-5.1-.4,3.9,3.9,0,0,1,.21-5.36A4.24,4.24,0,0,1,81.67,89.22Z" style="fill:#ff6900"/><path d="M96.7,87.44A3.72,3.72,0,0,1,96,92.56a3.61,3.61,0,0,1-5-.76,3.49,3.49,0,0,1,.73-4.93A3.6,3.6,0,0,1,96.7,87.44Z" style="fill:#ff6900"/><circle cx="49.76" cy="66.83" r="4.9" style="fill:#ff6900"/><circle cx="86.42" cy="44.09" r="4.9" style="fill:#ff6900"/><circle cx="135.55" cy="83.65" r="4.9" style="fill:#ff6900"/><circle cx="25.5" cy="32.2" r="4.9" style="fill:#ff6900"/><circle cx="116.39" cy="16.77" r="4.9" style="fill:#ff6900"/><circle cx="74.18" cy="78.05" r="3.46" style="fill:#ff6900"/><circle cx="59.18" cy="82.05" r="3.46" style="fill:#ff6900"/><circle cx="37.5" cy="11.93" r="3.46" style="fill:#ff6900"/><circle cx="129.31" cy="8.92" r="3.46" style="fill:#ff6900"/><circle cx="109.2" cy="100.2" r="3.46" style="fill:#ff6900"/><circle cx="134.03" cy="123.93" r="3.46" style="fill:#ff6900"/><circle cx="113.39" cy="128.35" r="3.46" style="fill:#ff6900"/><circle cx="63.17" cy="127.83" r="3.75" style="fill:#ff6900"/><circle cx="37.77" cy="93.6" r="3.75" style="fill:#ff6900"/><circle cx="84.76" cy="108.98" r="3.75" style="fill:#ff6900"/><circle cx="64.76" cy="50.05" r="3.75" style="fill:#ff6900"/><circle cx="7.82" cy="37.58" r="3.75" style="fill:#ff6900"/><circle cx="92.5" cy="17.37" r="3.75" style="fill:#ff6900"/><circle cx="74.88" cy="21.27" r="3.75" style="fill:#ff6900"/><circle cx="56.05" cy="17.52" r="3.75" style="fill:#ff6900"/><circle cx="40.55" cy="25.05" r="2.5" style="fill:#ff6900"/><circle cx="82.52" cy="8.92" r="2.5" style="fill:#ff6900"/><circle cx="111.2" cy="4.06" r="2.5" style="fill:#ff6900"/><circle cx="40.55" cy="39.24" r="2.5" style="fill:#ff6900"/><circle cx="101.21" cy="52.13" r="2.5" style="fill:#ff6900"/><circle cx="114.96" cy="51.26" r="2.5" style="fill:#ff6900"/><circle cx="64.76" cy="97.04" r="2.5" style="fill:#ff6900"/><circle cx="55.66" cy="92.91" r="2.5" style="fill:#ff6900"/><circle cx="40.25" cy="80.43" r="2.5" style="fill:#ff6900"/><circle cx="28.71" cy="75.84" r="2.5" style="fill:#ff6900"/><circle cx="19.49" cy="92.26" r="2.5" style="fill:#ff6900"/><circle cx="29.84" cy="105.89" r="2.5" style="fill:#ff6900"/><circle cx="76.98" cy="61.01" r="2.5" style="fill:#ff6900"/><circle cx="138.05" cy="27.01" r="2.5" style="fill:#ff6900"/><circle cx="126.83" cy="73.92" r="2.5" style="fill:#ff6900"/><circle cx="99.8" cy="118.19" r="2.5" style="fill:#ff6900"/><circle cx="80.56" cy="136.05" r="2.5" style="fill:#ff6900"/><circle cx="50.76" cy="136.58" r="2.5" style="fill:#ff6900"/><circle cx="130.49" cy="105.08" r="2.5" style="fill:#ff6900"/><circle cx="32.68" cy="58.67" r="3.75" style="fill:#ff6900"/><circle cx="26.23" cy="120.74" r="3.75" style="fill:#ff6900"/><circle cx="9.98" cy="122.45" r="3.75" style="fill:#ff6900"/><circle cx="82.52" cy="122.12" r="3.46" style="fill:#ff6900"/><circle cx="66.54" cy="4.06" r="2.5" style="fill:#ff6900"/><circle cx="71.13" cy="35.13" r="2.5" style="fill:#ff6900"/><circle cx="44.93" cy="48.8" r="2.5" style="fill:#ff6900"/><circle cx="18.74" cy="47.87" r="2.5" style="fill:#ff6900"/><circle cx="6.26" cy="78.34" r="2.5" style="fill:#ff6900"/><circle cx="14.49" cy="64.12" r="3.25" style="fill:#ff6900"/><circle cx="67.8" cy="113.36" r="3.25" style="fill:#ff6900"/><circle cx="126.81" cy="45.09" r="3.25" style="fill:#ff6900"/><circle cx="109.94" cy="78.51" r="4" style="fill:#ff6900"/><circle cx="123.22" cy="91.69" r="3.46" style="fill:#ff6900"/><circle cx="38.5" cy="127.47" r="2.5" style="fill:#ff6900"/><path d="M95.26,74.42a7,7,0,1,1,7-7A7,7,0,0,1,95.26,74.42Zm0-11.5a4.5,4.5,0,1,0,4.5,4.5A4.51,4.51,0,0,0,95.26,62.92Z" style="fill:#ff6900"/><path d="M47.43,118.08a6.5,6.5,0,1,1,6.5-6.5A6.51,6.51,0,0,1,47.43,118.08Zm0-10.5a4,4,0,1,0,4,4A4,4,0,0,0,47.43,107.58Z" style="fill:#ff6900"/><path d="M105.8,40.37a5.75,5.75,0,1,1,5.75-5.75A5.76,5.76,0,0,1,105.8,40.37Zm0-9a3.25,3.25,0,1,0,3.25,3.25A3.26,3.26,0,0,0,105.8,31.37Z" style="fill:#ff6900"/><path d="M15.16,21.93a6.5,6.5,0,1,1,6.5-6.5A6.51,6.51,0,0,1,15.16,21.93Zm0-10.5a4,4,0,1,0,4,4A4,4,0,0,0,15.16,11.43Z" style="fill:#ff6900"/><path d="M8.26,109.79A5.75,5.75,0,1,1,14,104,5.76,5.76,0,0,1,8.26,109.79Zm0-9A3.25,3.25,0,1,0,11.51,104,3.26,3.26,0,0,0,8.26,100.79Z" style="fill:#ff6900"/><circle cx="117.39" cy="112.35" r="3.46" style="fill:#ff6900"/><circle cx="19.51" cy="136.02" r="3.46" style="fill:#ff6900"/><circle cx="125.96" cy="31.26" r="2.5" style="fill:#ff6900"/><circle cx="128.96" cy="61.26" r="2.5" style="fill:#ff6900"/><circle cx="113.96" cy="64.26" r="2.5" style="fill:#ff6900"/><path d="M7.07,1.77a2.5,2.5,0,0,0,3.53,0A2.49,2.49,0,0,0,11.33,0h-5A2.5,2.5,0,0,0,7.07,1.77Z" style="fill:#ff6900"/><path d="M30.57,1.77a2.52,2.52,0,0,0,3.54,0A2.49,2.49,0,0,0,34.84,0h-5A2.53,2.53,0,0,0,30.57,1.77Z" style="fill:#ff6900"/><path d="M98.37,4.9a4.9,4.9,0,0,0,4.9-4.9h-9.8A4.9,4.9,0,0,0,98.37,4.9Z" style="fill:#ff6900"/><path d="M136,138.92a2.5,2.5,0,0,0-4.26,1.77h5A2.5,2.5,0,0,0,136,138.92Z" style="fill:#ff6900"/><path d="M98.37,135.79a4.9,4.9,0,0,0-4.9,4.9h9.8A4.9,4.9,0,0,0,98.37,135.79Z" style="fill:#ff6900"/><path d="M34.11,138.92a2.5,2.5,0,0,0-3.54,0,2.53,2.53,0,0,0-.73,1.77h5A2.49,2.49,0,0,0,34.11,138.92Z" style="fill:#ff6900"/><path d="M10.6,138.92a2.51,2.51,0,0,0-4.27,1.77h5A2.49,2.49,0,0,0,10.6,138.92Z" style="fill:#ff6900"/><path d="M0,56.71v8a4,4,0,1,0,0-8Z" style="fill:#ff6900"/></svg>