<?xml version="1.0" encoding="utf-8"?>
<!-- Generator: Adobe Illustrator 22.1.0, SVG Export Plug-In . SVG Version: 6.00 Build 0)  -->
<svg version="1.1" id="Ebene_1" xmlns="http://www.w3.org/2000/svg" xmlns:xlink="http://www.w3.org/1999/xlink" x="0px" y="0px"
	 viewBox="0 0 70.3 70.3" style="enable-background:new 0 0 70.3 70.3;" xml:space="preserve">
<style type="text/css">
	.st0{fill:#FF6900;}
</style>
<g>
	<path class="st0" d="M18.2,10.5c-2.1,0-3.2-1.1-4.2-2c-0.2-0.2-0.2-0.5,0-0.7s0.5-0.2,0.7,0c0.9,0.9,1.8,1.8,3.5,1.8
		s2.5-0.8,3.5-1.8c1-0.9,2.1-2,4.2-2c2.1,0,3.2,1.1,4.2,2L30.4,8c0.2,0.2,0.2,0.5,0,0.7s-0.5,0.2-0.7,0l-0.3-0.3
		c-1-0.9-1.8-1.8-3.5-1.8s-2.5,0.8-3.5,1.8C21.5,9.4,20.4,10.5,18.2,10.5z"/>
	<path class="st0" d="M18.2,24.6c-2.1,0-3.2-1.1-4.2-2c-0.2-0.2-0.2-0.5,0-0.7c0.2-0.2,0.5-0.2,0.7,0c0.9,0.9,1.8,1.8,3.5,1.8
		s2.5-0.8,3.5-1.8c1-1,2.1-2,4.2-2c2.1,0,3.2,1.1,4.2,2l0.3,0.3c0.2,0.2,0.2,0.5,0,0.7c-0.2,0.2-0.5,0.2-0.7,0l-0.3-0.3
		c-1-0.9-1.8-1.8-3.5-1.8s-2.5,0.8-3.5,1.8C21.5,23.5,20.4,24.6,18.2,24.6z"/>
	<path class="st0" d="M17.3,17.6c-2.1,0-3.2-1.1-4.2-2c-0.9-0.9-1.8-1.8-3.5-1.8c-1.7,0-2.5,0.8-3.5,1.8c-0.2,0.2-0.5,0.2-0.7,0
		c-0.2-0.2-0.2-0.5,0-0.7c1-0.9,2.1-2,4.2-2c2.1,0,3.2,1.1,4.2,2c0.9,0.9,1.8,1.7,3.5,1.7s2.5-0.8,3.5-1.8l0.3-0.3
		c0.2-0.2,0.5-0.2,0.7,0s0.2,0.5,0,0.7l-0.3,0.3C20.5,16.5,19.4,17.6,17.3,17.6z"/>
	<path class="st0" d="M17.3,32.6c-2.1,0-3.2-1.1-4.2-2c-0.9-0.9-1.8-1.8-3.5-1.8c-1.7,0-2.5,0.8-3.5,1.8c-0.2,0.2-0.5,0.2-0.7,0
		c-0.2-0.2-0.2-0.5,0-0.7c1-1,2.1-2,4.2-2c2.1,0,3.2,1.1,4.2,2c0.9,0.9,1.8,1.8,3.5,1.8s2.5-0.8,3.5-1.8l0.3-0.3
		c0.2-0.2,0.5-0.2,0.7,0s0.2,0.5,0,0.7l-0.3,0.3C20.5,31.5,19.4,32.6,17.3,32.6z"/>
	<path class="st0" d="M41.8,10.5c-2.1,0-3.2-1.1-4.2-2c-0.2-0.2-0.2-0.5,0-0.7c0.2-0.2,0.5-0.2,0.7,0c1,0.9,1.8,1.8,3.5,1.8
		s2.5-0.8,3.5-1.8c1-0.9,2.1-2,4.2-2c2.1,0,3.2,1.1,4.2,2L53.9,8c0.2,0.2,0.2,0.5,0,0.7c-0.2,0.2-0.5,0.2-0.7,0l-0.3-0.3
		c-1-0.9-1.8-1.8-3.5-1.8c-1.7,0-2.5,0.8-3.5,1.8C45,9.4,43.9,10.5,41.8,10.5z"/>
	<path class="st0" d="M41.8,24.6c-2.1,0-3.2-1.1-4.2-2c-0.2-0.2-0.2-0.5,0-0.7c0.2-0.2,0.5-0.2,0.7,0c1,0.9,1.8,1.8,3.5,1.8
		s2.5-0.8,3.5-1.8c1-1,2.1-2,4.2-2c2.1,0,3.2,1.1,4.2,2l0.3,0.3c0.2,0.2,0.2,0.5,0,0.7c-0.2,0.2-0.5,0.2-0.7,0l-0.3-0.3
		c-1-0.9-1.8-1.8-3.5-1.8c-1.7,0-2.5,0.8-3.5,1.8C45,23.5,43.9,24.6,41.8,24.6z"/>
	<path class="st0" d="M40.8,17.6c-2.1,0-3.2-1.1-4.2-2c-1-0.9-1.8-1.8-3.5-1.8c-1.7,0-2.5,0.8-3.5,1.8c-0.2,0.2-0.5,0.2-0.7,0
		c-0.2-0.2-0.2-0.5,0-0.7c1-0.9,2.1-2,4.2-2c2.1,0,3.2,1.1,4.2,2c1,0.9,1.8,1.8,3.5,1.8s2.5-0.8,3.5-1.8l0.3-0.3
		c0.2-0.2,0.5-0.2,0.7,0s0.2,0.5,0,0.7L45,15.5C44,16.5,43,17.6,40.8,17.6z"/>
	<path class="st0" d="M40.8,33.6c-2.5,0-3.8-1.3-4.9-2.3c-0.9-0.9-1.5-1.5-2.8-1.5s-1.9,0.6-2.8,1.5c-0.6,0.6-1.5,0.6-2.1,0
		s-0.6-1.5,0-2.1c1-1,2.4-2.3,4.9-2.3s3.8,1.3,4.9,2.3c0.9,0.9,1.5,1.5,2.8,1.5s1.9-0.6,2.8-1.5l0.3-0.3c0.6-0.6,1.5-0.6,2.1,0
		s0.6,1.5,0,2.1l-0.3,0.3C44.7,32.3,43.4,33.6,40.8,33.6z"/>
	<path class="st0" d="M64.3,17.6c-2.1,0-3.2-1.1-4.2-2c-1-0.9-1.8-1.8-3.5-1.8c-1.7,0-2.5,0.8-3.5,1.8c-0.2,0.2-0.5,0.2-0.7,0
		c-0.2-0.2-0.2-0.5,0-0.7c1-0.9,2.1-2,4.2-2c2.1,0,3.2,1.1,4.2,2c1,0.9,1.8,1.8,3.5,1.8c1.7,0,2.5-0.8,3.5-1.8l0.3-0.3
		c0.2-0.2,0.5-0.2,0.7,0s0.2,0.5,0,0.7l-0.3,0.3C67.5,16.5,66.4,17.6,64.3,17.6z"/>
	<path class="st0" d="M64.3,32.6c-2.1,0-3.2-1.1-4.2-2c-1-0.9-1.8-1.8-3.5-1.8c-1.7,0-2.5,0.8-3.5,1.8c-0.2,0.2-0.5,0.2-0.7,0
		c-0.2-0.2-0.2-0.5,0-0.7c1-1,2.1-2,4.2-2c2.1,0,3.2,1.1,4.2,2c1,0.9,1.8,1.8,3.5,1.8c1.7,0,2.5-0.8,3.5-1.8l0.3-0.3
		c0.2-0.2,0.5-0.2,0.7,0s0.2,0.5,0,0.7l-0.3,0.3C67.5,31.5,66.4,32.6,64.3,32.6z"/>
	<path class="st0" d="M15.6,41.1c-2.1,0-3.2-1.1-4.2-2c-0.9-0.9-1.8-1.8-3.5-1.8s-2.5,0.8-3.5,1.8c-0.2,0.2-0.5,0.2-0.7,0
		c-0.2-0.2-0.2-0.5,0-0.7c1-1,2.1-2,4.2-2s3.2,1.1,4.2,2c0.9,0.9,1.8,1.8,3.5,1.8c1.7,0,2.5-0.8,3.5-1.8l0.3-0.3
		c0.2-0.2,0.5-0.2,0.7,0s0.2,0.5,0,0.7l-0.3,0.3C18.9,40,17.8,41.1,15.6,41.1z"/>
	<path class="st0" d="M18.2,50.2c-2.5,0-3.8-1.3-4.9-2.3c-0.6-0.6-0.6-1.5,0-2.1s1.5-0.6,2.1,0c0.9,0.9,1.5,1.5,2.8,1.5
		s1.9-0.6,2.8-1.5c1-1,2.4-2.3,4.9-2.3c2.5,0,3.8,1.3,4.9,2.3l0.3,0.2c0.6,0.6,0.6,1.5,0,2.1c-0.6,0.6-1.5,0.6-2.1,0l-0.3-0.3
		c-0.9-0.9-1.5-1.5-2.8-1.5S24,47,23.1,47.8C22.1,48.9,20.8,50.2,18.2,50.2z"/>
	<path class="st0" d="M18.2,65.2c-2.1,0-3.2-1.1-4.2-2c-0.2-0.2-0.2-0.5,0-0.7s0.5-0.2,0.7,0c0.9,0.9,1.8,1.7,3.5,1.7
		s2.5-0.8,3.5-1.8c1-1,2.1-2,4.2-2c2.1,0,3.2,1.1,4.2,2l0.3,0.3c0.2,0.2,0.2,0.5,0,0.7s-0.5,0.2-0.7,0l-0.3-0.3
		c-1-0.9-1.8-1.8-3.5-1.8c-1.7,0-2.5,0.8-3.5,1.8C21.5,64.1,20.4,65.2,18.2,65.2z"/>
	<path class="st0" d="M17.3,57.2c-2.1,0-3.2-1.1-4.2-2c-0.9-0.9-1.8-1.8-3.5-1.8s-2.5,0.8-3.5,1.8c-0.2,0.2-0.5,0.2-0.7,0
		c-0.2-0.2-0.2-0.5,0-0.7c1-1,2.1-2,4.2-2s3.2,1.1,4.2,2c0.9,0.9,1.8,1.8,3.5,1.8c1.7,0,2.5-0.8,3.5-1.8l0.3-0.3
		c0.2-0.2,0.5-0.2,0.7,0s0.2,0.5,0,0.7l-0.3,0.3C20.5,56.1,19.4,57.2,17.3,57.2z"/>
	<path class="st0" d="M39.2,41.1c-2.1,0-3.2-1.1-4.2-2c-1-0.9-1.8-1.8-3.5-1.8S29,38.2,28,39.1c-0.2,0.2-0.5,0.2-0.7,0
		c-0.2-0.2-0.2-0.5,0-0.7c1-1,2.1-2,4.2-2s3.2,1.1,4.2,2c1,0.9,1.8,1.8,3.5,1.8c1.7,0,2.5-0.8,3.5-1.8l0.3-0.3
		c0.2-0.2,0.5-0.2,0.7,0s0.2,0.5,0,0.7l-0.3,0.3C42.4,40,41.3,41.1,39.2,41.1z"/>
	<path class="st0" d="M41.8,49.2c-2.1,0-3.2-1.1-4.2-2c-0.2-0.2-0.2-0.5,0-0.7c0.2-0.2,0.5-0.2,0.7,0c1,0.9,1.8,1.8,3.5,1.8
		c1.7,0,2.5-0.8,3.5-1.8c1-1,2.1-2,4.2-2c2.1,0,3.2,1.1,4.2,2l0.3,0.3c0.2,0.2,0.2,0.5,0,0.7c-0.2,0.2-0.5,0.2-0.7,0l-0.3-0.3
		c-1-0.9-1.8-1.8-3.5-1.8c-1.7,0-2.5,0.8-3.5,1.8C45,48.1,43.9,49.2,41.8,49.2z"/>
	<path class="st0" d="M41.8,65.2c-2.1,0-3.2-1.1-4.2-2c-0.2-0.2-0.2-0.5,0-0.7c0.2-0.2,0.5-0.2,0.7,0c1,0.9,1.8,1.7,3.5,1.7
		s2.5-0.8,3.5-1.8c1-1,2.1-2,4.2-2c2.1,0,3.2,1.1,4.2,2l0.3,0.3c0.2,0.2,0.2,0.5,0,0.7c-0.2,0.2-0.5,0.2-0.7,0L53,63.2
		c-1-0.9-1.8-1.8-3.5-1.8c-1.7,0-2.5,0.8-3.5,1.8C45,64.1,43.9,65.2,41.8,65.2z"/>
	<path class="st0" d="M40.8,57.2c-2.1,0-3.2-1.1-4.2-2c-1-0.9-1.8-1.8-3.5-1.8s-2.5,0.8-3.5,1.8c-0.2,0.2-0.5,0.2-0.7,0
		c-0.2-0.2-0.2-0.5,0-0.7c1-1,2.1-2,4.2-2s3.2,1.1,4.2,2c1,0.9,1.8,1.8,3.5,1.8c1.7,0,2.5-0.8,3.5-1.8l0.3-0.3
		c0.2-0.2,0.5-0.2,0.7,0s0.2,0.5,0,0.7L45,55.2C44,56.1,43,57.2,40.8,57.2z"/>
	<path class="st0" d="M62.7,41.1c-2.1,0-3.2-1.1-4.2-2c-1-0.9-1.8-1.8-3.5-1.8c-1.7,0-2.5,0.8-3.5,1.8c-0.2,0.2-0.5,0.2-0.7,0
		c-0.2-0.2-0.2-0.5,0-0.7c1-1,2.1-2,4.2-2c2.1,0,3.2,1.1,4.2,2c1,0.9,1.8,1.8,3.5,1.8c1.7,0,2.5-0.8,3.5-1.8l0.3-0.3
		c0.2-0.2,0.5-0.2,0.7,0s0.2,0.5,0,0.7l-0.3,0.3C65.9,40,64.8,41.1,62.7,41.1z"/>
	<path class="st0" d="M64.3,58.2c-2.5,0-3.8-1.3-4.9-2.3c-0.9-0.9-1.5-1.5-2.8-1.5s-1.9,0.6-2.8,1.5c-0.6,0.6-1.5,0.6-2.1,0
		s-0.6-1.5,0-2.1c1-1,2.4-2.3,4.9-2.3s3.8,1.3,4.9,2.3c0.9,0.9,1.5,1.5,2.8,1.5c1.3,0,1.9-0.6,2.8-1.5l0.3-0.3
		c0.6-0.6,1.5-0.6,2.1,0s0.6,1.5,0,2.1l-0.3,0.3C68.1,56.9,66.8,58.2,64.3,58.2z"/>
	<path class="st0" d="M18.1,0c-0.7,0.7-1.3,1.2-2.5,1.2S13.9,0.7,13.2,0H2.9C2.5,0.6,2.5,1.3,3,1.8c0.6,0.6,1.5,0.6,2.1,0
		C6.1,1,6.7,0.4,8,0.4S9.9,1,10.8,1.8c1.1,1,2.4,2.3,4.9,2.3c2.5,0,3.8-1.3,4.9-2.3l0.3-0.2c0.4-0.4,0.5-1,0.4-1.6L18.1,0
		C18.1,0,18.1,0,18.1,0z"/>
	<g>
		<path class="st0" d="M27.7,0c-0.1,0.1-0.3,0.3-0.4,0.4c-0.2,0.2-0.2,0.5,0,0.7s0.5,0.2,0.7,0c0.4-0.4,0.8-0.8,1.3-1.1L27.7,0
			C27.7,0,27.7,0,27.7,0z"/>
		<path class="st0" d="M43,0.2l-0.3,0.3c-1,0.9-1.8,1.8-3.5,1.8c-1.7,0-2.5-0.8-3.5-1.8c-0.1-0.1-0.3-0.3-0.4-0.4h-1.6
			c0.5,0.3,0.9,0.7,1.3,1.1c1,1,2.1,2,4.2,2c2.1,0,3.2-1.1,4.2-2l0.3-0.3c0.2-0.2,0.2-0.5,0-0.7C43.5,0,43.2,0,43,0.2z"/>
	</g>
	<g>
		<path class="st0" d="M51.2,0c-0.2,0.1-0.3,0.3-0.4,0.4c-0.2,0.2-0.2,0.5,0,0.7c0.2,0.2,0.5,0.2,0.7,0c0.4-0.4,0.8-0.8,1.3-1.1
			L51.2,0L51.2,0z"/>
		<path class="st0" d="M66.4,0.2l-0.3,0.3c-0.9,0.9-1.8,1.8-3.5,1.8s-2.5-0.8-3.5-1.8C59,0.3,58.9,0.2,58.7,0h-1.6
			c0.5,0.3,0.9,0.7,1.3,1.1c1,1,2.1,2,4.2,2c2.1,0,3.2-1.1,4.2-2l0.3-0.3c0.2-0.2,0.2-0.5,0-0.7C66.9,0,66.6,0,66.4,0.2z"/>
	</g>
	<path class="st0" d="M70.3,6.4c-0.6,0.4-1.1,0.9-1.6,1.3c-0.9,0.9-1.8,1.8-3.5,1.8c-1.7,0-2.5-0.8-3.5-1.8c-0.2-0.2-0.5-0.2-0.7,0
		c-0.2,0.2-0.2,0.5,0,0.7c1,0.9,2.1,2,4.2,2c2.1,0,3.2-1.1,4.2-2c0.3-0.3,0.6-0.6,0.9-0.8V6.4L70.3,6.4z"/>
	<path class="st0" d="M70.3,20.5c-0.6,0.4-1.1,0.9-1.6,1.3c-0.9,0.9-1.8,1.8-3.5,1.8c-1.7,0-2.5-0.8-3.5-1.8c-0.2-0.2-0.5-0.2-0.7,0
		c-0.2,0.2-0.2,0.5,0,0.7c1,1,2.1,2,4.2,2c2.1,0,3.2-1.1,4.2-2c0.3-0.3,0.6-0.6,0.9-0.8V20.5L70.3,20.5z"/>
	<path class="st0" d="M70.3,45.1c-0.6,0.4-1.1,0.9-1.6,1.3c-0.9,0.9-1.8,1.8-3.5,1.8s-2.5-0.8-3.5-1.8c-0.2-0.2-0.5-0.2-0.7,0
		c-0.2,0.2-0.2,0.5,0,0.7c1,1,2.1,2,4.2,2s3.2-1.1,4.2-2c0.3-0.3,0.6-0.6,0.9-0.8V45.1L70.3,45.1z"/>
	<path class="st0" d="M70.3,61.1c-0.6,0.4-1.1,0.9-1.6,1.3c-0.9,0.9-1.8,1.8-3.5,1.8c-1.7,0-2.5-0.8-3.5-1.8c-0.2-0.2-0.5-0.2-0.7,0
		c-0.2,0.2-0.2,0.5,0,0.7c1,1,2.1,2,4.2,2s3.2-1.1,4.2-2c0.3-0.3,0.6-0.6,0.9-0.8V61.1L70.3,61.1z"/>
	<path class="st0" d="M52.8,70.4c0.6-0.4,1.2-0.6,2.2-0.6s1.6,0.2,2.2,0.6h1.6c-0.9-0.8-1.9-1.6-3.8-1.6s-2.9,0.8-3.8,1.6H52.8z"/>
	<path class="st0" d="M29.3,70.4c0.6-0.4,1.2-0.6,2.2-0.6c0.9,0,1.6,0.2,2.2,0.6h1.6c-0.9-0.8-1.9-1.6-3.8-1.6s-2.9,0.8-3.8,1.6
		H29.3z"/>
	<g>
		<path class="st0" d="M21.2,70.4c-0.1-0.2-0.2-0.4-0.3-0.5c-0.6-0.6-1.5-0.6-2.1,0l-0.3,0.3c-0.1,0.1-0.2,0.2-0.3,0.3H21.2
			L21.2,70.4z"/>
		<path class="st0" d="M13.1,70.4c-0.1-0.1-0.2-0.2-0.3-0.3c-1.1-1-2.4-2.3-4.9-2.3c-2.5,0-3.8,1.3-4.9,2.3
			c-0.1,0.1-0.1,0.2-0.2,0.3H13.1z"/>
	</g>
	<path class="st0" d="M7,62.7l-0.3-0.3c-1-1-2.1-2-4.2-2c-1.1,0-1.9,0.3-2.6,0.7v1.2c0.7-0.5,1.4-0.9,2.6-0.9c1.7,0,2.5,0.8,3.5,1.8
		l0.3,0.3c0.2,0.2,0.5,0.2,0.7,0C7.2,63.2,7.2,62.9,7,62.7z"/>
	<path class="st0" d="M7,46.7l-0.3-0.3c-1-1-2.1-2-4.2-2c-1.1,0-1.9,0.3-2.6,0.7v1.2c0.7-0.5,1.4-0.9,2.6-0.9c1.7,0,2.5,0.8,3.5,1.8
		l0.3,0.3c0.2,0.2,0.5,0.2,0.7,0C7.2,47.2,7.2,46.9,7,46.7z"/>
	<path class="st0" d="M7,22.1l-0.3-0.3c-1-1-2.1-2-4.2-2c-1.1,0-1.9,0.3-2.6,0.7v1.2c0.7-0.5,1.4-0.9,2.6-0.9c1.7,0,2.5,0.8,3.5,1.8
		l0.3,0.3c0.2,0.2,0.5,0.2,0.7,0C7.2,22.6,7.2,22.3,7,22.1z"/>
	<path class="st0" d="M7,8L6.8,7.8c-1-0.9-2.1-2-4.2-2C1.5,5.7,0.7,6,0,6.4v1.2c0.7-0.5,1.4-0.9,2.6-0.9c1.7,0,2.5,0.8,3.5,1.8
		l0.3,0.3C6.5,9,6.9,9,7.1,8.8C7.2,8.5,7.2,8.2,7,8z"/>
</g>
</svg>
